HIERARCHY
ROOT Hips
{
 OFFSET 0.000000 0.000000 0.000000
 CHANNELS 6 Xposition Yposition Zposition Yrotation Xrotation Zrotation
 JOINT Chest
 {
  OFFSET 0.000000 9.585900 0.002600
  CHANNELS 3 Yrotation Xrotation Zrotation
  JOINT Chest2
  {
   OFFSET 0.000000 9.601200 -0.005300
   CHANNELS 3 Yrotation Xrotation Zrotation
   JOINT Chest3
   {
    OFFSET 0.000000 9.561800 0.000000
    CHANNELS 3 Yrotation Xrotation Zrotation
    JOINT Chest4
    {
     OFFSET 0.000000 9.552100 0.000000
     CHANNELS 3 Yrotation Xrotation Zrotation
     JOINT Neck
     {
      OFFSET 0.000000 14.453000 0.000000
      CHANNELS 3 Yrotation Xrotation Zrotation
      JOINT Head
      {
       OFFSET 0.000000 8.936500 -0.011300
       CHANNELS 3 Yrotation Xrotation Zrotation
       End Site
       {
        OFFSET 0.000000 17.073600 -0.006000
       }
      }
     }
     JOINT RightCollar
     {
      OFFSET -2.921100 9.558500 0.000000
      CHANNELS 3 Yrotation Xrotation Zrotation
      JOINT RightShoulder
      {
       OFFSET -13.519700 0.000000 0.000000
       CHANNELS 3 Yrotation Xrotation Zrotation
       JOINT RightElbow
       {
        OFFSET 0.000000 -29.696600 0.000000
        CHANNELS 3 Yrotation Xrotation Zrotation
        JOINT RightWrist
        {
         OFFSET 0.000000 -24.004700 0.000000
         CHANNELS 3 Yrotation Xrotation Zrotation
         End Site
         {
          OFFSET 0.000000 -17.728500 0.000000
         }
        }
       }
      }
     }
     JOINT LeftCollar
     {
      OFFSET 2.921100 9.558500 0.000000
      CHANNELS 3 Yrotation Xrotation Zrotation
      JOINT LeftShoulder
      {
       OFFSET 13.519700 0.000000 0.000000
       CHANNELS 3 Yrotation Xrotation Zrotation
       JOINT LeftElbow
       {
        OFFSET 0.000000 -29.696600 0.000000
        CHANNELS 3 Yrotation Xrotation Zrotation
        JOINT LeftWrist
        {
         OFFSET 0.000000 -24.004700 0.000000
         CHANNELS 3 Yrotation Xrotation Zrotation
         End Site
         {
          OFFSET 0.000000 -17.728500 0.000000
         }
        }
       }
      }
     }
    }
   }
  }
 }
 JOINT RightHip
 {
  OFFSET -7.771700 -0.012900 -0.001300
  CHANNELS 3 Yrotation Xrotation Zrotation
  JOINT RightKnee
  {
   OFFSET 0.000000 -40.869800 0.001200
   CHANNELS 3 Yrotation Xrotation Zrotation
   JOINT RightAnkle
   {
    OFFSET 0.000000 -39.717900 0.002100
    CHANNELS 3 Yrotation Xrotation Zrotation
    JOINT RightToe
    {
     OFFSET 0.000000 -4.965400 11.033500
     CHANNELS 3 Yrotation Xrotation Zrotation
     End Site
     {
      OFFSET 0.000000 -1.423100 5.872300
     }
    }
   }
  }
 }
 JOINT LeftHip
 {
  OFFSET 7.771700 -0.012900 -0.001300
  CHANNELS 3 Yrotation Xrotation Zrotation
  JOINT LeftKnee
  {
   OFFSET 0.000000 -40.869800 0.001200
   CHANNELS 3 Yrotation Xrotation Zrotation
   JOINT LeftAnkle
   {
    OFFSET 0.000000 -39.717900 0.002100
    CHANNELS 3 Yrotation Xrotation Zrotation
    JOINT LeftToe
    {
     OFFSET 0.000000 -4.965400 11.033500
     CHANNELS 3 Yrotation Xrotation Zrotation
     End Site
     {
      OFFSET 0.000000 -1.423100 5.872300
     }
    }
   }
  }
 }
}
MOTION
Frames: 8
Frame Time: 0.008333
7.526792 49.849191 45.087007 172.965124 -31.154112 -6.523720 6.183149 19.268262 6.418189 0.679134 2.528791 0.578180 1.108666 4.122972 0.937268 5.074260 16.639130 4.451712 -3.447357 15.167250 0.936305 -6.799115 -7.516942 3.024348 0.651975 -3.638596 -6.531229 -2.978293 -3.155435 -2.562345 99.003699 -68.604201 -118.849460 8.927357 -4.009970 23.660396 -10.789360 -3.322226 0.552804 9.011106 -4.519577 2.527958 -162.533669 -69.924878 169.379745 16.326167 5.965483 -68.703765 -1.579767 -49.328181 10.571948 -114.465458 85.512447 -102.657743 -1.728392 -12.255168 -5.146910 -0.406382 0.944649 -0.168692 -8.738647 -53.469101 16.360773 -154.363065 80.568107 -161.441244 0.048178 -14.686575 7.699876 -0.316153 -0.748531 -0.139505
7.531731 49.848445 45.086712 172.965712 -31.159878 -6.533326 6.180962 19.270456 6.420797 0.673143 2.525418 0.568939 1.114906 4.121302 0.926964 5.079629 16.643805 4.439088 -3.418551 15.201043 0.952587 -6.738476 -7.435215 3.039048 0.699539 -3.531256 -6.526017 -3.114747 -3.458985 -2.743413 98.061640 -68.764094 -117.836315 8.788010 -4.332036 23.538036 -10.857578 -3.294851 0.581400 8.815922 -4.673001 2.562745 -160.903206 -69.980609 168.137244 16.930366 5.315784 -66.413032 -1.589772 -49.325145 10.582902 -114.528299 85.514279 -102.728941 -1.633967 -12.244424 -5.170737 -0.410244 0.945604 -0.154214 -8.762206 -53.463136 16.389092 -154.366124 80.562762 -161.449806 0.048894 -14.688117 7.702052 -0.318839 -0.746498 -0.143583
7.536927 49.848064 45.085073 172.971301 -31.174275 -6.546356 6.178481 19.276847 6.419583 0.673706 2.525763 0.566436 1.121197 4.123517 0.926391 5.081663 16.646741 4.426850 -3.383967 15.240970 0.962201 -6.681011 -7.360456 3.060217 0.732739 -3.445288 -6.496188 -3.191607 -3.740720 -2.952841 97.190582 -69.078831 -116.896633 8.529026 -4.470779 23.247673 -10.932947 -3.255969 0.600867 8.618756 -4.835413 2.595318 -159.060575 -70.004842 166.695920 17.441512 4.614476 -63.980979 -1.606217 -49.311341 10.601157 -114.589965 85.519594 -102.799773 -1.568447 -12.240079 -5.189365 -0.391062 0.949105 -0.141277 -8.799476 -53.446812 16.424777 -154.380495 80.554998 -161.474049 0.044871 -14.689003 7.702266 -0.321960 -0.743705 -0.146459
7.539779 49.847740 45.081590 172.989280 -31.197030 -6.550699 6.171018 19.291866 6.404392 0.674467 2.526611 0.563915 1.117287 4.129604 0.938828 5.093787 16.644482 4.399205 -3.344588 15.292645 0.982649 -6.612261 -7.265533 3.080790 0.745406 -3.366376 -6.437625 -3.202683 -4.010229 -3.171263 96.382586 -69.512944 -116.040155 8.206504 -4.449736 22.823782 -11.017104 -3.200182 0.625403 8.422286 -5.006504 2.628117 -157.059767 -70.001586 165.102764 17.858571 3.895890 -61.433728 -1.600213 -49.289306 10.598770 -114.625287 85.507609 -102.828459 -1.596975 -12.255682 -5.183334 -0.243418 0.960652 -0.138769 -8.804319 -53.425721 16.414695 -154.374807 80.547994 -161.467621 0.045716 -14.688622 7.702180 -0.323249 -0.741667 -0.147768
7.542251 49.846884 45.077928 173.004737 -31.221218 -6.551509 6.168183 19.303559 6.386383 0.676341 2.528245 0.562642 1.120049 4.132121 0.936459 5.113726 16.641933 4.386289 -3.303072 15.356199 1.012141 -6.536591 -7.150134 3.098355 0.742933 -3.276823 -6.351871 -3.165712 -4.278942 -3.394671 95.632911 -70.019339 -115.267527 7.869458 -4.314219 22.283630 -11.110217 -3.128561 0.657032 8.225131 -5.185336 2.659002 -154.986730 -69.982658 163.439192 18.171323 3.193884 -58.796620 -1.592319 -49.266365 10.586711 -114.686540 85.493151 -102.880177 -1.611578 -12.270257 -5.176119 -0.309765 0.966378 -0.143767 -8.809681 -53.403954 16.404693 -154.369965 80.539588 -161.465974 0.049004 -14.687092 7.703151 -0.323097 -0.737409 -0.149028
7.544912 49.844456 45.076123 173.024007 -31.233786 -6.556855 6.201831 19.272064 6.374275 0.668283 2.535541 0.563315 1.097992 4.149258 0.946052 5.144066 16.645373 4.386711 -3.264156 15.423491 1.029609 -6.466816 -7.026394 3.112605 0.729900 -3.183166 -6.257400 -3.106003 -4.539452 -3.621201 94.930973 -70.542947 -114.568088 7.552719 -4.116344 21.630138 -11.218403 -3.052926 0.679225 8.020644 -5.371597 2.686688 -152.910911 -69.959617 161.779510 18.372059 2.536503 -56.095219 -1.597287 -49.254319 10.576427 -114.773964 85.482470 -102.962755 -1.593673 -12.284627 -5.179114 -0.291753 0.975779 -0.142507 -8.829673 -53.393893 16.404990 -154.432818 80.536468 -161.531527 0.038677 -14.688045 7.699766 -0.321631 -0.732878 -0.148211
7.550951 49.842830 45.073421 173.038241 -31.259942 -6.579180 6.239401 19.272970 6.399085 0.635847 2.550374 0.567687 1.125005 4.136209 0.934353 5.180473 16.659998 4.396392 -3.231341 15.485590 1.041435 -6.406727 -6.912402 3.118968 0.702419 -3.095628 -6.151469 -3.038179 -4.787268 -3.846209 94.265514 -71.031162 -113.929909 7.271894 -3.902243 20.874545 -11.346868 -2.981836 0.698201 7.795168 -5.567828 2.708467 -150.852212 -69.941341 160.149168 18.464882 1.942027 -53.356791 -1.618013 -49.227716 10.590692 -114.857806 85.482639 -103.048145 -1.528244 -12.282122 -5.192827 -0.365558 0.974652 -0.136176 -8.880418 -53.366510 16.444566 -154.465109 80.525364 -161.571516 0.041074 -14.694377 7.693619 -0.322779 -0.729338 -0.149457
7.551955 49.840810 45.069228 173.060264 -31.293147 -6.574648 6.268352 19.287273 6.399429 0.634219 2.550826 0.563136 1.131295 4.141633 0.935370 5.211067 16.678821 4.411844 -3.199493 15.538060 1.046061 -6.346386 -6.816581 3.112853 0.668796 -3.012543 -6.039782 -2.968387 -5.027906 -4.067252 93.630751 -71.448592 -113.341871 7.029260 -3.706402 20.032143 -11.478789 -2.922604 0.711512 7.543482 -5.775091 2.719789 -148.776052 -69.925013 158.515539 18.470908 1.426988 -50.615381 -1.615699 -49.195117 10.574338 -114.918296 85.462696 -103.100100 -1.587678 -12.304305 -5.171172 -0.338958 0.980761 -0.149869 -8.878497 -53.336134 16.415814 -154.480864 80.518624 -161.587145 0.036113 -14.695197 7.684564 -0.311656 -0.727578 -0.143865
